<svg width="149" height="54" viewBox="0 0 149 54" fill="none" xmlns="http://www.w3.org/2000/svg">
<rect x="0.826668" y="0.569832" width="147.117" height="52.4804" rx="4.73184" fill="#090909" stroke="#555555" stroke-width="0.860335"/>
<g filter="url(#filter0_ii_985_730)">
<path d="M13.8001 13.4734C13.4869 13.8062 13.3018 14.3227 13.3018 14.9916V38.8896C13.3018 39.5595 13.4869 40.0749 13.8001 40.4078L13.8798 40.4856L27.2149 27.0983V26.9406V26.7828L13.8798 13.3945L13.8001 13.4734Z" fill="url(#paint0_linear_985_730)"/>
<path d="M31.6592 31.5624L27.2148 27.0986V26.9408V26.7831L31.6603 22.3203L31.7604 22.3776L37.027 25.3816C38.5307 26.2395 38.5307 27.6432 37.027 28.5023L31.7604 31.5063L31.6592 31.5624Z" fill="url(#paint1_linear_985_730)"/>
<g filter="url(#filter1_i_985_730)">
<path d="M31.7601 31.5038L27.2135 26.9395L13.7998 40.4066C14.2949 40.9339 15.1141 40.9988 16.0365 40.4736L31.7601 31.5038Z" fill="url(#paint2_linear_985_730)"/>
</g>
<path d="M31.7601 22.3768L16.0365 13.4081C15.1141 12.8818 14.2949 12.9478 13.7998 13.4751L27.2146 26.9422L31.7601 22.3768Z" fill="url(#paint3_linear_985_730)"/>
</g>
<path d="M76.7859 29.7035C74.3948 29.7035 72.446 31.5213 72.446 34.0249C72.446 36.5133 74.3948 38.3463 76.7859 38.3463C79.1779 38.3463 81.1267 36.5133 81.1267 34.0249C81.1257 31.5213 79.1769 29.7035 76.7859 29.7035ZM76.7859 36.6454C75.4755 36.6454 74.346 35.5653 74.346 34.0259C74.346 32.4703 75.4765 31.4064 76.7859 31.4064C78.0963 31.4064 79.2257 32.4703 79.2257 34.0259C79.2257 35.5642 78.0963 36.6454 76.7859 36.6454ZM67.3173 29.7035C64.9262 29.7035 62.9774 31.5213 62.9774 34.0249C62.9774 36.5133 64.9262 38.3463 67.3173 38.3463C69.7093 38.3463 71.6582 36.5133 71.6582 34.0249C71.6582 31.5213 69.7093 29.7035 67.3173 29.7035ZM67.3173 36.6454C66.0069 36.6454 64.8774 35.5653 64.8774 34.0259C64.8774 32.4703 66.0079 31.4064 67.3173 31.4064C68.6277 31.4064 69.7571 32.4703 69.7571 34.0259C69.7581 35.5642 68.6277 36.6454 67.3173 36.6454ZM56.0554 31.0305V32.8635H60.4451C60.3139 33.8948 59.9703 34.6477 59.4458 35.171C58.8073 35.8091 57.808 36.5133 56.0554 36.5133C53.3533 36.5133 51.2408 34.3358 51.2408 31.6351C51.2408 28.9343 53.3533 26.7568 56.0554 26.7568C57.5132 26.7568 58.5776 27.3299 59.3634 28.0666L60.6576 26.7731C59.5596 25.7255 58.1028 24.9238 56.0554 24.9238C52.354 24.9238 49.2422 27.9355 49.2422 31.6351C49.2422 35.3346 52.354 38.3463 56.0554 38.3463C58.053 38.3463 59.5607 37.6909 60.7389 36.4635C61.9507 35.2523 62.3278 33.5494 62.3278 32.1746C62.3278 31.7499 62.2953 31.3566 62.2292 31.0295L56.0554 31.0305ZM102.115 32.454C101.756 31.4887 100.658 29.7035 98.414 29.7035C96.1866 29.7035 94.3354 31.4552 94.3354 34.0249C94.3354 36.4472 96.1703 38.3463 98.6264 38.3463C100.608 38.3463 101.755 37.1351 102.23 36.431L100.756 35.4484C100.265 36.1688 99.5932 36.6433 98.6264 36.6433C97.6607 36.6433 96.9724 36.2013 96.5302 35.3336L102.312 32.9438L102.115 32.454ZM96.2191 33.8948C96.1703 32.2244 97.5133 31.3739 98.4801 31.3739C99.2333 31.3739 99.8718 31.7509 100.085 32.2904L96.2191 33.8948ZM91.5194 38.0851H93.4184V25.3831H91.5194V38.0851ZM88.4066 30.6698H88.3415C87.9156 30.1617 87.0962 29.7035 86.0654 29.7035C83.9031 29.7035 81.9217 31.6025 81.9217 34.0422C81.9217 36.4645 83.9031 38.3473 86.0654 38.3473C87.0972 38.3473 87.9156 37.889 88.3415 37.3658H88.4066V37.9876C88.4066 39.6408 87.5222 40.5248 86.0979 40.5248C84.9349 40.5248 84.2141 39.6906 83.9193 38.9864L82.2653 39.6743C82.7401 40.8194 84.0007 42.2277 86.0979 42.2277C88.3253 42.2277 90.209 40.918 90.209 37.7255V29.9666H88.4076L88.4066 30.6698ZM86.229 36.6454C84.9187 36.6454 83.8217 35.548 83.8217 34.0422C83.8217 32.519 84.9187 31.4064 86.229 31.4064C87.5222 31.4064 88.5377 32.519 88.5377 34.0422C88.5377 35.548 87.5222 36.6454 86.229 36.6454ZM111.015 25.3831H106.469V38.0851H108.365V33.273H111.014C113.116 33.273 115.184 31.7519 115.184 29.3285C115.184 26.9052 113.117 25.3831 111.015 25.3831ZM111.063 31.505H108.365V27.1511H111.063C112.482 27.1511 113.287 28.3247 113.287 29.3285C113.287 30.3121 112.482 31.505 111.063 31.505ZM122.787 29.6811C121.413 29.6811 119.991 30.2857 119.403 31.6259L121.086 32.328C121.446 31.6259 122.117 31.3963 122.819 31.3963C123.8 31.3963 124.798 31.9846 124.814 33.0301V33.1612C124.47 32.9651 123.734 32.6715 122.836 32.6715C121.021 32.6715 119.173 33.6682 119.173 35.5307C119.173 37.2306 120.661 38.3249 122.328 38.3249C123.603 38.3249 124.307 37.7529 124.748 37.0823H124.813V38.0628H126.645V33.1927C126.646 30.939 124.96 29.6811 122.787 29.6811ZM122.557 36.6423C121.937 36.6423 121.07 36.3314 121.07 35.5632C121.07 34.5827 122.149 34.2068 123.082 34.2068C123.914 34.2068 124.308 34.3866 124.814 34.6315C124.667 35.8091 123.653 36.6423 122.557 36.6423ZM133.316 29.9585L131.141 35.4657H131.076L128.819 29.9585H126.776L130.16 37.6553L128.231 41.9371H130.209L135.425 29.9585H133.316ZM116.231 38.0851H118.127V25.3831H116.231V38.0851Z" fill="white"/>
<path d="M55.8184 17.8701C55.8184 18.7061 55.5665 19.3716 55.0617 19.8684C54.4888 20.4591 53.7413 20.7544 52.8231 20.7544C51.9435 20.7544 51.195 20.4551 50.5805 19.8565C49.965 19.2569 49.6572 18.5146 49.6572 17.6287C49.6572 16.7417 49.965 15.9995 50.5805 15.4009C51.195 14.8013 51.9435 14.5019 52.8231 14.5019C53.2599 14.5019 53.6773 14.5858 54.0734 14.7524C54.4706 14.92 54.7885 15.1425 55.0261 15.4208L54.4909 15.9476C54.0877 15.4737 53.5321 15.2372 52.8221 15.2372C52.1802 15.2372 51.6256 15.4587 51.1574 15.9017C50.6892 16.3447 50.4556 16.9203 50.4556 17.6277C50.4556 18.335 50.6892 18.9107 51.1574 19.3536C51.6256 19.7966 52.1802 20.0181 52.8221 20.0181C53.5026 20.0181 54.0704 19.7956 54.5244 19.3496C54.8189 19.0593 54.9896 18.6553 55.0353 18.1375H52.8221V17.4181H55.7747C55.8052 17.5748 55.8184 17.7254 55.8184 17.8701Z" fill="white"/>
<path d="M60.5008 15.37H57.7259V17.2676H60.2286V17.9869H57.7259V19.8845H60.5008V20.6207H56.9428V14.6347H60.5008V15.37Z" fill="white"/>
<path d="M63.8027 20.6207H63.0196V15.37H61.3173V14.6347H65.505V15.37H63.8027V20.6207Z" fill="white"/>
<path d="M68.5347 20.6207V14.6347H69.3178V20.6207H68.5347Z" fill="white"/>
<path d="M72.7906 20.6207H72.0075V15.37H70.3052V14.6347H74.4929V15.37H72.7906V20.6207Z" fill="white"/>
<path d="M82.4201 19.8475C81.8209 20.4521 81.0764 20.7544 80.1856 20.7544C79.2948 20.7544 78.5503 20.4521 77.9521 19.8475C77.3528 19.2429 77.0542 18.5027 77.0542 17.6277C77.0542 16.7527 77.3528 16.0125 77.9521 15.4079C78.5503 14.8033 79.2948 14.5 80.1856 14.5C81.0713 14.5 81.8148 14.8043 82.416 15.4119C83.0173 16.0195 83.318 16.7577 83.318 17.6277C83.318 18.5027 83.0183 19.2429 82.4201 19.8475ZM78.53 19.3457C78.981 19.7947 79.5325 20.0181 80.1856 20.0181C80.8387 20.0181 81.3912 19.7937 81.8412 19.3457C82.2921 18.8967 82.5186 18.3241 82.5186 17.6277C82.5186 16.9313 82.2921 16.3587 81.8412 15.9097C81.3912 15.4608 80.8387 15.2373 80.1856 15.2373C79.5325 15.2373 78.981 15.4618 78.53 15.9097C78.0801 16.3587 77.8536 16.9313 77.8536 17.6277C77.8536 18.3241 78.0801 18.8967 78.53 19.3457Z" fill="white"/>
<path d="M84.417 20.6207V14.6347H85.3697L88.3314 19.2908H88.3649L88.3314 18.1375V14.6347H89.1145V20.6207H88.2969L85.198 15.7381H85.1645L85.198 16.8914V20.6207H84.417Z" fill="white"/>
<path d="M55.8184 17.8701C55.8184 18.7061 55.5665 19.3716 55.0617 19.8684C54.4888 20.4591 53.7413 20.7544 52.8231 20.7544C51.9435 20.7544 51.195 20.4551 50.5805 19.8565C49.965 19.2569 49.6572 18.5146 49.6572 17.6287C49.6572 16.7417 49.965 15.9995 50.5805 15.4009C51.195 14.8013 51.9435 14.5019 52.8231 14.5019C53.2599 14.5019 53.6773 14.5858 54.0734 14.7524C54.4706 14.92 54.7885 15.1425 55.0261 15.4208L54.4909 15.9476C54.0877 15.4737 53.5321 15.2372 52.8221 15.2372C52.1802 15.2372 51.6256 15.4587 51.1574 15.9017C50.6892 16.3447 50.4556 16.9203 50.4556 17.6277C50.4556 18.335 50.6892 18.9107 51.1574 19.3536C51.6256 19.7966 52.1802 20.0181 52.8221 20.0181C53.5026 20.0181 54.0704 19.7956 54.5244 19.3496C54.8189 19.0593 54.9896 18.6553 55.0353 18.1375H52.8221V17.4181H55.7747C55.8052 17.5748 55.8184 17.7254 55.8184 17.8701Z" stroke="white" stroke-width="0.0416961" stroke-miterlimit="10"/>
<path d="M60.5008 15.37H57.7259V17.2676H60.2286V17.9869H57.7259V19.8845H60.5008V20.6207H56.9428V14.6347H60.5008V15.37Z" stroke="white" stroke-width="0.0416961" stroke-miterlimit="10"/>
<path d="M63.8027 20.6207H63.0196V15.37H61.3173V14.6347H65.505V15.37H63.8027V20.6207Z" stroke="white" stroke-width="0.0416961" stroke-miterlimit="10"/>
<path d="M68.5347 20.6207V14.6347H69.3178V20.6207H68.5347Z" stroke="white" stroke-width="0.0416961" stroke-miterlimit="10"/>
<path d="M72.7906 20.6207H72.0075V15.37H70.3052V14.6347H74.4929V15.37H72.7906V20.6207Z" stroke="white" stroke-width="0.0416961" stroke-miterlimit="10"/>
<path d="M82.4201 19.8475C81.8209 20.4521 81.0764 20.7544 80.1856 20.7544C79.2948 20.7544 78.5503 20.4521 77.9521 19.8475C77.3528 19.2429 77.0542 18.5027 77.0542 17.6277C77.0542 16.7527 77.3528 16.0125 77.9521 15.4079C78.5503 14.8033 79.2948 14.5 80.1856 14.5C81.0713 14.5 81.8148 14.8043 82.416 15.4119C83.0173 16.0195 83.318 16.7577 83.318 17.6277C83.318 18.5027 83.0183 19.2429 82.4201 19.8475ZM78.53 19.3457C78.981 19.7947 79.5325 20.0181 80.1856 20.0181C80.8387 20.0181 81.3912 19.7937 81.8412 19.3457C82.2921 18.8967 82.5186 18.3241 82.5186 17.6277C82.5186 16.9313 82.2921 16.3587 81.8412 15.9097C81.3912 15.4608 80.8387 15.2373 80.1856 15.2373C79.5325 15.2373 78.981 15.4618 78.53 15.9097C78.0801 16.3587 77.8536 16.9313 77.8536 17.6277C77.8536 18.3241 78.0801 18.8967 78.53 19.3457Z" stroke="white" stroke-width="0.0416961" stroke-miterlimit="10"/>
<path d="M84.417 20.6207V14.6347H85.3697L88.3314 19.2908H88.3649L88.3314 18.1375V14.6347H89.1145V20.6207H88.2969L85.198 15.7381H85.1645L85.198 16.8914V20.6207H84.417Z" stroke="white" stroke-width="0.0416961" stroke-miterlimit="10"/>
<defs>
<filter id="filter0_ii_985_730" x="13.3018" y="13.0449" width="24.8535" height="27.791" filterUnits="userSpaceOnUse" color-interpolation-filters="sRGB">
<feFlood flood-opacity="0" result="BackgroundImageFix"/>
<feBlend mode="normal" in="SourceGraphic" in2="BackgroundImageFix" result="shape"/>
<feColorMatrix in="SourceAlpha" type="matrix" values="0 0 0 0 0 0 0 0 0 0 0 0 0 0 0 0 0 0 127 0" result="hardAlpha"/>
<feOffset dy="-0.162086"/>
<feComposite in2="hardAlpha" operator="arithmetic" k2="-1" k3="1"/>
<feColorMatrix type="matrix" values="0 0 0 0 0 0 0 0 0 0 0 0 0 0 0 0 0 0 0.12 0"/>
<feBlend mode="normal" in2="shape" result="effect1_innerShadow_985_730"/>
<feColorMatrix in="SourceAlpha" type="matrix" values="0 0 0 0 0 0 0 0 0 0 0 0 0 0 0 0 0 0 127 0" result="hardAlpha"/>
<feOffset dy="0.162086"/>
<feComposite in2="hardAlpha" operator="arithmetic" k2="-1" k3="1"/>
<feColorMatrix type="matrix" values="0 0 0 0 1 0 0 0 0 1 0 0 0 0 1 0 0 0 0.25 0"/>
<feBlend mode="normal" in2="effect1_innerShadow_985_730" result="effect2_innerShadow_985_730"/>
</filter>
<filter id="filter1_i_985_730" x="13.7998" y="26.9395" width="17.96" height="13.8965" filterUnits="userSpaceOnUse" color-interpolation-filters="sRGB">
<feFlood flood-opacity="0" result="BackgroundImageFix"/>
<feBlend mode="normal" in="SourceGraphic" in2="BackgroundImageFix" result="shape"/>
<feColorMatrix in="SourceAlpha" type="matrix" values="0 0 0 0 0 0 0 0 0 0 0 0 0 0 0 0 0 0 127 0" result="hardAlpha"/>
<feOffset dy="-0.162086"/>
<feComposite in2="hardAlpha" operator="arithmetic" k2="-1" k3="1"/>
<feColorMatrix type="matrix" values="0 0 0 0 0 0 0 0 0 0 0 0 0 0 0 0 0 0 0.08 0"/>
<feBlend mode="normal" in2="shape" result="effect1_innerShadow_985_730"/>
</filter>
<linearGradient id="paint0_linear_985_730" x1="26.0329" y1="14.7388" x2="7.89883" y2="32.8023" gradientUnits="userSpaceOnUse">
<stop stop-color="#00A0FF"/>
<stop offset="0.0066" stop-color="#00A1FF"/>
<stop offset="0.2601" stop-color="#00BEFF"/>
<stop offset="0.5122" stop-color="#00D2FF"/>
<stop offset="0.7604" stop-color="#00DFFF"/>
<stop offset="1" stop-color="#00E3FF"/>
</linearGradient>
<linearGradient id="paint1_linear_985_730" x1="38.9844" y1="26.9408" x2="12.9407" y2="26.9408" gradientUnits="userSpaceOnUse">
<stop stop-color="#FFE000"/>
<stop offset="0.4087" stop-color="#FFBD00"/>
<stop offset="0.7754" stop-color="#FFA500"/>
<stop offset="1" stop-color="#FF9C00"/>
</linearGradient>
<linearGradient id="paint2_linear_985_730" x1="29.291" y1="29.4182" x2="4.69903" y2="53.9146" gradientUnits="userSpaceOnUse">
<stop stop-color="#FF3A44"/>
<stop offset="1" stop-color="#C31162"/>
</linearGradient>
<linearGradient id="paint3_linear_985_730" x1="10.4215" y1="5.51968" x2="21.4025" y2="16.458" gradientUnits="userSpaceOnUse">
<stop stop-color="#32A071"/>
<stop offset="0.0685" stop-color="#2DA771"/>
<stop offset="0.4762" stop-color="#15CF74"/>
<stop offset="0.8009" stop-color="#06E775"/>
<stop offset="1" stop-color="#00F076"/>
</linearGradient>
</defs>
</svg>
